<mxfile host="app.diagrams.net" modified="2023-06-04T22:33:18.647Z" agent="Mozilla/5.0 (Windows NT 10.0; Win64; x64) AppleWebKit/537.36 (KHTML, like Gecko) Chrome/113.0.0.0 Safari/537.36 Edg/113.0.1774.57" etag="LBRRvLqFFJsF_4oLpA_Y" version="21.2.7" type="device">
  <diagram name="Page-1" id="t-dbMcN_9rsqTbI-OjCc">
    <mxGraphModel dx="2924" dy="1124" grid="1" gridSize="10" guides="1" tooltips="1" connect="1" arrows="1" fold="1" page="1" pageScale="1" pageWidth="850" pageHeight="1100" math="0" shadow="0">
      <root>
        <mxCell id="0" />
        <mxCell id="1" parent="0" />
        <mxCell id="6peNtcqHBfKT6djM1rJf-7" style="edgeStyle=orthogonalEdgeStyle;rounded=0;orthogonalLoop=1;jettySize=auto;html=1;" edge="1" parent="1">
          <mxGeometry relative="1" as="geometry">
            <mxPoint x="430" y="190" as="sourcePoint" />
            <mxPoint x="640" y="290" as="targetPoint" />
          </mxGeometry>
        </mxCell>
        <mxCell id="6peNtcqHBfKT6djM1rJf-5" style="edgeStyle=orthogonalEdgeStyle;rounded=0;orthogonalLoop=1;jettySize=auto;html=1;entryX=0;entryY=0.5;entryDx=0;entryDy=0;" edge="1" parent="1">
          <mxGeometry relative="1" as="geometry">
            <mxPoint x="189" y="329.5" as="sourcePoint" />
            <mxPoint x="309" y="189.5" as="targetPoint" />
            <Array as="points">
              <mxPoint x="189" y="330.5" />
              <mxPoint x="310" y="330.5" />
            </Array>
          </mxGeometry>
        </mxCell>
        <mxCell id="6peNtcqHBfKT6djM1rJf-25" style="edgeStyle=orthogonalEdgeStyle;rounded=0;orthogonalLoop=1;jettySize=auto;html=1;entryX=0.5;entryY=1;entryDx=0;entryDy=0;endArrow=none;endFill=0;" edge="1" parent="1" source="6peNtcqHBfKT6djM1rJf-6" target="6peNtcqHBfKT6djM1rJf-23">
          <mxGeometry relative="1" as="geometry" />
        </mxCell>
        <mxCell id="6peNtcqHBfKT6djM1rJf-6" value="Owns" style="rhombus;whiteSpace=wrap;html=1;" vertex="1" parent="1">
          <mxGeometry x="270" y="290" width="80" height="80" as="geometry" />
        </mxCell>
        <mxCell id="6peNtcqHBfKT6djM1rJf-35" style="edgeStyle=orthogonalEdgeStyle;rounded=0;orthogonalLoop=1;jettySize=auto;html=1;entryX=0;entryY=0.5;entryDx=0;entryDy=0;endArrow=none;endFill=0;" edge="1" parent="1" source="6peNtcqHBfKT6djM1rJf-8" target="6peNtcqHBfKT6djM1rJf-34">
          <mxGeometry relative="1" as="geometry" />
        </mxCell>
        <mxCell id="6peNtcqHBfKT6djM1rJf-8" value="Contains" style="rhombus;whiteSpace=wrap;html=1;" vertex="1" parent="1">
          <mxGeometry x="530" y="150" width="80" height="80" as="geometry" />
        </mxCell>
        <mxCell id="6peNtcqHBfKT6djM1rJf-13" value="Name" style="ellipse;whiteSpace=wrap;html=1;" vertex="1" parent="1">
          <mxGeometry x="30" y="410" width="110" height="50" as="geometry" />
        </mxCell>
        <mxCell id="6peNtcqHBfKT6djM1rJf-19" style="edgeStyle=orthogonalEdgeStyle;rounded=0;orthogonalLoop=1;jettySize=auto;html=1;exitX=0.5;exitY=0;exitDx=0;exitDy=0;strokeColor=none;" edge="1" parent="1" source="6peNtcqHBfKT6djM1rJf-14" target="6peNtcqHBfKT6djM1rJf-18">
          <mxGeometry relative="1" as="geometry" />
        </mxCell>
        <mxCell id="6peNtcqHBfKT6djM1rJf-20" style="edgeStyle=orthogonalEdgeStyle;rounded=0;orthogonalLoop=1;jettySize=auto;html=1;endArrow=none;endFill=0;" edge="1" parent="1" source="6peNtcqHBfKT6djM1rJf-14" target="6peNtcqHBfKT6djM1rJf-18">
          <mxGeometry relative="1" as="geometry" />
        </mxCell>
        <mxCell id="6peNtcqHBfKT6djM1rJf-21" style="edgeStyle=orthogonalEdgeStyle;rounded=0;orthogonalLoop=1;jettySize=auto;html=1;endArrow=none;endFill=0;" edge="1" parent="1" source="6peNtcqHBfKT6djM1rJf-14" target="6peNtcqHBfKT6djM1rJf-13">
          <mxGeometry relative="1" as="geometry" />
        </mxCell>
        <mxCell id="6peNtcqHBfKT6djM1rJf-22" style="edgeStyle=orthogonalEdgeStyle;rounded=0;orthogonalLoop=1;jettySize=auto;html=1;entryX=0;entryY=0.5;entryDx=0;entryDy=0;endArrow=none;endFill=0;" edge="1" parent="1" source="6peNtcqHBfKT6djM1rJf-14" target="6peNtcqHBfKT6djM1rJf-17">
          <mxGeometry relative="1" as="geometry" />
        </mxCell>
        <mxCell id="6peNtcqHBfKT6djM1rJf-14" value="Client" style="rounded=0;whiteSpace=wrap;html=1;" vertex="1" parent="1">
          <mxGeometry x="70" y="300" width="120" height="60" as="geometry" />
        </mxCell>
        <mxCell id="6peNtcqHBfKT6djM1rJf-30" style="edgeStyle=orthogonalEdgeStyle;rounded=0;orthogonalLoop=1;jettySize=auto;html=1;entryX=0;entryY=0.5;entryDx=0;entryDy=0;endArrow=none;endFill=0;" edge="1" parent="1" source="6peNtcqHBfKT6djM1rJf-15" target="6peNtcqHBfKT6djM1rJf-29">
          <mxGeometry relative="1" as="geometry" />
        </mxCell>
        <mxCell id="6peNtcqHBfKT6djM1rJf-31" style="edgeStyle=orthogonalEdgeStyle;rounded=0;orthogonalLoop=1;jettySize=auto;html=1;endArrow=none;endFill=0;" edge="1" parent="1" source="6peNtcqHBfKT6djM1rJf-15" target="6peNtcqHBfKT6djM1rJf-27">
          <mxGeometry relative="1" as="geometry" />
        </mxCell>
        <mxCell id="6peNtcqHBfKT6djM1rJf-32" style="edgeStyle=orthogonalEdgeStyle;rounded=0;orthogonalLoop=1;jettySize=auto;html=1;entryX=0.5;entryY=1;entryDx=0;entryDy=0;endArrow=none;endFill=0;" edge="1" parent="1" source="6peNtcqHBfKT6djM1rJf-15" target="6peNtcqHBfKT6djM1rJf-26">
          <mxGeometry relative="1" as="geometry" />
        </mxCell>
        <mxCell id="6peNtcqHBfKT6djM1rJf-33" style="edgeStyle=orthogonalEdgeStyle;rounded=0;orthogonalLoop=1;jettySize=auto;html=1;entryX=1;entryY=0.5;entryDx=0;entryDy=0;endArrow=none;endFill=0;" edge="1" parent="1" source="6peNtcqHBfKT6djM1rJf-15" target="6peNtcqHBfKT6djM1rJf-28">
          <mxGeometry relative="1" as="geometry" />
        </mxCell>
        <mxCell id="6peNtcqHBfKT6djM1rJf-15" value="Bill" style="rounded=0;whiteSpace=wrap;html=1;" vertex="1" parent="1">
          <mxGeometry x="305" y="160" width="120" height="60" as="geometry" />
        </mxCell>
        <mxCell id="6peNtcqHBfKT6djM1rJf-38" style="edgeStyle=orthogonalEdgeStyle;rounded=0;orthogonalLoop=1;jettySize=auto;html=1;entryX=0.5;entryY=0;entryDx=0;entryDy=0;endArrow=none;endFill=0;" edge="1" parent="1" source="6peNtcqHBfKT6djM1rJf-16" target="6peNtcqHBfKT6djM1rJf-36">
          <mxGeometry relative="1" as="geometry" />
        </mxCell>
        <mxCell id="6peNtcqHBfKT6djM1rJf-39" style="edgeStyle=orthogonalEdgeStyle;rounded=0;orthogonalLoop=1;jettySize=auto;html=1;entryX=0.5;entryY=0;entryDx=0;entryDy=0;endArrow=none;endFill=0;" edge="1" parent="1" source="6peNtcqHBfKT6djM1rJf-16" target="6peNtcqHBfKT6djM1rJf-37">
          <mxGeometry relative="1" as="geometry" />
        </mxCell>
        <mxCell id="6peNtcqHBfKT6djM1rJf-16" value="Product" style="rounded=0;whiteSpace=wrap;html=1;" vertex="1" parent="1">
          <mxGeometry x="580" y="290" width="120" height="60" as="geometry" />
        </mxCell>
        <mxCell id="6peNtcqHBfKT6djM1rJf-17" value="Age" style="ellipse;whiteSpace=wrap;html=1;" vertex="1" parent="1">
          <mxGeometry x="150" y="370" width="110" height="50" as="geometry" />
        </mxCell>
        <mxCell id="6peNtcqHBfKT6djM1rJf-18" value="Gender" style="ellipse;whiteSpace=wrap;html=1;" vertex="1" parent="1">
          <mxGeometry x="-90" y="300" width="110" height="50" as="geometry" />
        </mxCell>
        <mxCell id="6peNtcqHBfKT6djM1rJf-23" value="clientDocument" style="ellipse;whiteSpace=wrap;html=1;" vertex="1" parent="1">
          <mxGeometry x="330" y="360" width="110" height="50" as="geometry" />
        </mxCell>
        <mxCell id="6peNtcqHBfKT6djM1rJf-26" value="discount" style="ellipse;whiteSpace=wrap;html=1;" vertex="1" parent="1">
          <mxGeometry x="180" y="120" width="110" height="50" as="geometry" />
        </mxCell>
        <mxCell id="6peNtcqHBfKT6djM1rJf-27" value="discountDetail" style="ellipse;whiteSpace=wrap;html=1;" vertex="1" parent="1">
          <mxGeometry x="315" y="60" width="110" height="50" as="geometry" />
        </mxCell>
        <mxCell id="6peNtcqHBfKT6djM1rJf-28" value="date" style="ellipse;whiteSpace=wrap;html=1;" vertex="1" parent="1">
          <mxGeometry x="150" y="190" width="110" height="50" as="geometry" />
        </mxCell>
        <mxCell id="6peNtcqHBfKT6djM1rJf-29" value="totalValue" style="ellipse;whiteSpace=wrap;html=1;" vertex="1" parent="1">
          <mxGeometry x="390" y="230" width="110" height="50" as="geometry" />
        </mxCell>
        <mxCell id="6peNtcqHBfKT6djM1rJf-34" value="productName" style="ellipse;whiteSpace=wrap;html=1;" vertex="1" parent="1">
          <mxGeometry x="580" y="80" width="110" height="50" as="geometry" />
        </mxCell>
        <mxCell id="6peNtcqHBfKT6djM1rJf-36" value="stock" style="ellipse;whiteSpace=wrap;html=1;" vertex="1" parent="1">
          <mxGeometry x="510" y="400" width="110" height="50" as="geometry" />
        </mxCell>
        <mxCell id="6peNtcqHBfKT6djM1rJf-37" value="value" style="ellipse;whiteSpace=wrap;html=1;" vertex="1" parent="1">
          <mxGeometry x="670" y="380" width="110" height="50" as="geometry" />
        </mxCell>
      </root>
    </mxGraphModel>
  </diagram>
</mxfile>
